PathFileType	4	(X/Y/Z)	c:/Users/goper/Files/vsCode/490R/osim_files/C12/C12_Slow_05.trc
DataRate	CameraRate	NumFrames	NumMarkers	Units                	OrigDataRate	OrigDataStartFrame	OrigNumFrames
120.00	120.00	4	36	mm	120.0	1075	1432
                Frame#	Time	LPSIS			LASIS			LTH1			LTH2			LTH3			LTH4			LLFE			LMFE			LSH1			LSH2			LSH3			LSH4			LLMAL			LMMAL			LCAL			LMTP5			LTOE			LMTP1			RPSIS			RASIS			RTH1			RTH2			RTH3			RTH4			RLFE			RMFE			RSH1			RSH2			RSH3			RSH4			RLMAL			RMMAL			RCAL			RMTP1			RTOE			RMTP5		
		X1	Y1	Z1	X2	Y2	Z2	X3	Y3	Z3	X4	Y4	Z4	X5	Y5	Z5	X6	Y6	Z6	X7	Y7	Z7	X8	Y8	Z8	X9	Y9	Z9	X10	Y10	Z10	X11	Y11	Z11	X12	Y12	Z12	X13	Y13	Z13	X14	Y14	Z14	X15	Y15	Z15	X16	Y16	Z16	X17	Y17	Z17	X18	Y18	Z18	X19	Y19	Z19	X20	Y20	Z20	X21	Y21	Z21	X22	Y22	Z22	X23	Y23	Z23	X24	Y24	Z24	X25	Y25	Z25	X26	Y26	Z26	X27	Y27	Z27	X28	Y28	Z28	X29	Y29	Z29	X30	Y30	Z30	X31	Y31	Z31	X32	Y32	Z32	X33	Y33	Z33	X34	Y34	Z34	X35	Y35	Z35	X36	Y36	Z36

1075	8.95000	-3563.58350	1044.10730	379.60675	-3746.86816	1008.97333	424.63062	-3747.70972	736.48834	483.62695	-3759.74829	692.76898	472.11896	-3799.56860	757.22632	475.26077	-3812.24536	715.95142	472.26517	-3863.26587	549.10382	422.77463	-3834.73560	537.61230	300.19205	-3826.32812	440.69913	448.48062	-3837.57959	394.98361	455.46793	-3884.37891	449.15256	434.88583	-3886.77686	400.82999	441.84122	-3893.86206	107.52599	411.61288	-3901.69922	114.06628	330.96851	0.00000	0.00000	0.00000	-4029.89771	56.26500	430.41116	-4076.65894	91.39809	361.27258	0.00000	0.00000	0.00000	0.00000	0.00000	0.00000	-3737.68799	1007.17584	167.27280	-3569.45288	743.37964	125.46246	0.00000	0.00000	0.00000	-3632.04688	727.03906	126.59309	-3614.66235	682.54498	133.38614	-3515.40137	528.42023	162.00868	-3519.94800	521.67975	295.04254	-3406.81152	480.31085	143.84583	-3384.60059	443.85818	136.85979	0.00000	0.00000	0.00000	-3424.19678	411.68283	140.47444	-3225.26807	196.19991	177.86050	-3250.53564	192.47404	258.95380	-3149.65601	206.20285	223.18520	-3297.49463	58.04095	266.16190	-3334.76172	68.72119	234.51190	-3295.34326	47.18467	158.22137
1076	8.95833	-3575.27368	1046.51978	380.35312	-3758.49292	1011.39447	425.64523	-3759.80273	738.60321	484.98282	-3772.64429	695.61713	473.44897	-3811.86816	760.56476	476.05246	-3824.64990	719.97113	473.42712	-3875.58960	550.81488	423.91757	-3849.93311	541.33459	302.23764	-3835.73584	443.32440	450.60724	-3845.84106	397.16666	457.49332	-3893.82568	450.11758	436.46527	-3894.96802	401.67471	443.39380	-3894.59839	107.89723	411.79950	-3901.78101	114.42388	332.09460	0.00000	0.00000	0.00000	-4030.22900	55.16751	430.80774	-4077.19556	90.69955	361.36566	0.00000	0.00000	0.00000	0.00000	0.00000	0.00000	-3749.58447	1008.53485	169.06050	-3584.35132	742.83447	126.57468	0.00000	0.00000	0.00000	-3647.05786	727.12085	128.00864	-3631.45239	683.03003	133.45668	-3532.11548	527.57794	161.83371	-3536.95850	520.52509	294.59598	-3422.28809	482.22037	144.13841	-3399.85474	446.33176	137.21396	0.00000	0.00000	0.00000	-3438.26025	413.08649	139.78572	-3235.23901	201.44876	177.76283	-3261.40283	196.33972	258.73526	-3160.97852	215.77257	224.10931	-3298.96606	58.84833	266.47046	-3335.19165	68.44976	234.38039	-3296.23413	48.15990	158.37477
1077	8.96667	-3586.93091	1049.15295	380.76962	-3770.12305	1014.01465	426.80093	-3765.25537	732.34454	479.96176	-3785.53198	697.45416	475.09390	0.00000	0.00000	0.00000	-3837.54175	723.16187	474.47571	-3887.13599	552.12915	425.15106	-3864.04004	543.64423	302.54251	-3844.68896	445.50552	452.56375	-3853.61426	399.13654	459.26169	-3902.66382	450.83350	437.89346	-3902.72021	402.39313	444.74478	-3895.63623	108.21245	412.02267	-3902.15845	114.93771	333.03555	0.00000	0.00000	0.00000	-4030.88599	54.50691	431.08588	-4078.74463	88.95529	361.51654	0.00000	0.00000	0.00000	0.00000	0.00000	0.00000	-3761.19019	1010.00671	171.02899	-3599.37573	742.39563	127.50073	0.00000	0.00000	0.00000	-3662.37036	727.36450	129.19368	-3647.35522	683.04065	134.38460	-3549.24438	526.58081	161.24423	-3554.56226	518.89301	293.68756	-3438.38354	483.93939	144.34756	-3414.61938	448.60355	137.17937	0.00000	0.00000	0.00000	-3453.04346	414.49747	138.84866	-3245.98389	206.89381	177.80995	-3272.56348	200.48563	258.47293	-3173.17749	225.89018	225.09592	-3301.87012	60.85332	266.89651	-3338.11670	69.68851	235.06990	-3297.48413	50.07045	158.58423
1078	8.97500	-3598.84595	1051.67896	381.06558	-3781.56079	1016.69904	428.15204	-3777.55908	734.76233	482.07629	-3798.65381	699.88684	477.13394	0.00000	0.00000	0.00000	-3849.84888	725.83344	475.86005	-3897.66187	552.87463	426.56555	-3876.94189	545.34613	303.23734	-3853.39502	447.28897	454.31042	-3861.26099	400.63525	460.74063	-3911.21313	451.22238	439.03024	-3910.25610	402.76968	445.77002	-3896.50293	108.46049	412.11798	-3902.86914	115.32524	333.45184	0.00000	0.00000	0.00000	-4031.36914	54.09034	431.32181	-4079.58984	86.92445	362.21112	0.00000	0.00000	0.00000	0.00000	0.00000	0.00000	-3772.64478	1011.69775	173.12527	-3614.56592	741.69458	128.36494	0.00000	0.00000	0.00000	-3677.79248	727.61090	130.22971	-3663.41553	683.07281	135.08267	-3566.95532	525.35022	160.53995	-3573.86499	516.86096	292.90308	-3455.13745	485.43884	144.51324	-3431.33984	450.32581	137.27841	0.00000	0.00000	0.00000	-3468.48413	415.66537	137.83762	-3257.49365	212.79825	177.94315	-3284.25903	205.15271	258.40146	-3187.34204	236.27698	225.97794	-3305.40283	63.88089	267.23584	-3339.44800	70.73207	234.88388	-3299.03687	52.88517	158.77853
